<?xml version="1.0" encoding="UTF-8" ?>
<svg version="1.1" width="32" height="32" xmlns="http://www.w3.org/2000/svg" shape-rendering="crispEdges">
<rect x="13" y="3" width="1" height="1" fill="#142D32" opacity="0.713725" />
<rect x="14" y="3" width="1" height="1" fill="#25515A" opacity="0.686275" />
<rect x="15" y="3" width="1" height="1" fill="#1B3B42" opacity="0.784314" />
<rect x="16" y="3" width="2" height="1" fill="#1C3D44" opacity="0.800000" />
<rect x="18" y="3" width="1" height="1" fill="#1B3B42" opacity="0.784314" />
<rect x="19" y="3" width="1" height="1" fill="#142C31" opacity="0.733333" />
<rect x="10" y="4" width="2" height="1" fill="#000000" />
<rect x="12" y="4" width="1" height="1" fill="#1C3D44" opacity="0.862745" />
<rect x="13" y="4" width="1" height="1" fill="#3D8594" opacity="0.890196" />
<rect x="14" y="4" width="1" height="1" fill="#428E9E" opacity="0.964706" />
<rect x="15" y="4" width="1" height="1" fill="#408B9B" opacity="0.949020" />
<rect x="16" y="4" width="1" height="1" fill="#4493A3" opacity="0.972549" />
<rect x="17" y="4" width="1" height="1" fill="#4391A1" opacity="0.968627" />
<rect x="18" y="4" width="1" height="1" fill="#4390A0" opacity="0.984314" />
<rect x="19" y="4" width="1" height="1" fill="#489BAC" opacity="0.933333" />
<rect x="20" y="4" width="1" height="1" fill="#20454D" opacity="0.866667" />
<rect x="21" y="4" width="2" height="1" fill="#000000" />
<rect x="9" y="5" width="2" height="1" fill="#000000" />
<rect x="11" y="5" width="1" height="1" fill="#467B83" />
<rect x="12" y="5" width="1" height="1" fill="#408A98" opacity="0.996078" />
<rect x="13" y="5" width="1" height="1" fill="#50ACBF" opacity="0.996078" />
<rect x="14" y="5" width="1" height="1" fill="#58BFD4" opacity="0.992157" />
<rect x="15" y="5" width="1" height="1" fill="#58BED3" opacity="0.996078" />
<rect x="16" y="5" width="1" height="1" fill="#55B8CC" opacity="0.992157" />
<rect x="17" y="5" width="1" height="1" fill="#58BFD4" opacity="0.996078" />
<rect x="18" y="5" width="1" height="1" fill="#5BC5DB" />
<rect x="19" y="5" width="1" height="1" fill="#53B5C9" />
<rect x="20" y="5" width="1" height="1" fill="#4BA2B4" />
<rect x="21" y="5" width="1" height="1" fill="#488089" />
<rect x="22" y="5" width="2" height="1" fill="#000000" />
<rect x="8" y="6" width="1" height="1" fill="#000000" />
<rect x="9" y="6" width="2" height="1" fill="#E65000" />
<rect x="11" y="6" width="1" height="1" fill="#3C382A" />
<rect x="12" y="6" width="1" height="1" fill="#53969B" />
<rect x="13" y="6" width="1" height="1" fill="#52AFC2" />
<rect x="14" y="6" width="1" height="1" fill="#5DC7DD" />
<rect x="15" y="6" width="1" height="1" fill="#5DC9E0" opacity="0.996078" />
<rect x="16" y="6" width="1" height="1" fill="#5CC8DE" opacity="0.996078" />
<rect x="17" y="6" width="1" height="1" fill="#5DCAE1" />
<rect x="18" y="6" width="1" height="1" fill="#5DC9E0" />
<rect x="19" y="6" width="1" height="1" fill="#54B7CB" />
<rect x="20" y="6" width="1" height="1" fill="#58AAB5" />
<rect x="21" y="6" width="1" height="1" fill="#3D3D2F" />
<rect x="22" y="6" width="2" height="1" fill="#E65000" />
<rect x="24" y="6" width="1" height="1" fill="#000000" />
<rect x="7" y="7" width="1" height="1" fill="#000000" />
<rect x="8" y="7" width="1" height="1" fill="#C95A0E" opacity="0.933333" />
<rect x="9" y="7" width="1" height="1" fill="#E78D2A" />
<rect x="10" y="7" width="1" height="1" fill="#DD6911" />
<rect x="11" y="7" width="1" height="1" fill="#C17A17" />
<rect x="12" y="7" width="1" height="1" fill="#3B3F2D" />
<rect x="13" y="7" width="1" height="1" fill="#54979B" />
<rect x="14" y="7" width="1" height="1" fill="#52AFC1" />
<rect x="15" y="7" width="1" height="1" fill="#59C1D6" />
<rect x="16" y="7" width="1" height="1" fill="#5CC7DD" />
<rect x="17" y="7" width="1" height="1" fill="#5BC6DC" />
<rect x="18" y="7" width="1" height="1" fill="#53B5C9" />
<rect x="19" y="7" width="1" height="1" fill="#58AAB5" />
<rect x="20" y="7" width="1" height="1" fill="#3A412F" />
<rect x="21" y="7" width="1" height="1" fill="#C07713" />
<rect x="22" y="7" width="1" height="1" fill="#DB660D" />
<rect x="23" y="7" width="1" height="1" fill="#E7912A" />
<rect x="24" y="7" width="1" height="1" fill="#C97B0E" opacity="0.933333" />
<rect x="25" y="7" width="1" height="1" fill="#000000" />
<rect x="6" y="8" width="1" height="1" fill="#000000" />
<rect x="7" y="8" width="1" height="1" fill="#C95E0E" opacity="0.933333" />
<rect x="8" y="8" width="1" height="1" fill="#EB9A32" />
<rect x="9" y="8" width="1" height="1" fill="#FBA637" />
<rect x="10" y="8" width="1" height="1" fill="#FBAA37" />
<rect x="11" y="8" width="1" height="1" fill="#E99B2E" />
<rect x="12" y="8" width="1" height="1" fill="#C3851C" />
<rect x="13" y="8" width="1" height="1" fill="#3B3F2D" />
<rect x="14" y="8" width="1" height="1" fill="#4A8386" />
<rect x="15" y="8" width="1" height="1" fill="#4BA1B3" />
<rect x="16" y="8" width="2" height="1" fill="#4CA4B6" />
<rect x="18" y="8" width="1" height="1" fill="#519BA4" />
<rect x="19" y="8" width="1" height="1" fill="#3B4331" />
<rect x="20" y="8" width="1" height="1" fill="#C08013" />
<rect x="21" y="8" width="1" height="1" fill="#DB860D" />
<rect x="22" y="8" width="1" height="1" fill="#FAA732" />
<rect x="23" y="8" width="1" height="1" fill="#FBAA37" />
<rect x="24" y="8" width="1" height="1" fill="#EBA232" />
<rect x="25" y="8" width="1" height="1" fill="#C97F0E" opacity="0.933333" />
<rect x="26" y="8" width="1" height="1" fill="#000000" />
<rect x="5" y="9" width="1" height="1" fill="#000000" />
<rect x="6" y="9" width="1" height="1" fill="#C97B0E" opacity="0.933333" />
<rect x="7" y="9" width="1" height="1" fill="#EB9E32" />
<rect x="8" y="9" width="1" height="1" fill="#FDAD3B" />
<rect x="9" y="9" width="2" height="3" fill="#FFB43F" />
<rect x="11" y="9" width="1" height="1" fill="#FDB13B" />
<rect x="12" y="9" width="1" height="1" fill="#EBA232" />
<rect x="13" y="9" width="1" height="1" fill="#C58720" />
<rect x="14" y="9" width="5" height="1" fill="#000000" />
<rect x="19" y="9" width="1" height="1" fill="#C3851C" />
<rect x="20" y="9" width="1" height="1" fill="#DD8C11" />
<rect x="21" y="9" width="1" height="1" fill="#FAAC32" />
<rect x="22" y="9" width="1" height="1" fill="#FDB13B" />
<rect x="23" y="9" width="1" height="3" fill="#FFB43F" />
<rect x="24" y="9" width="1" height="1" fill="#FDB13B" />
<rect x="25" y="9" width="1" height="1" fill="#EBA232" />
<rect x="26" y="9" width="1" height="1" fill="#C97F0E" opacity="0.933333" />
<rect x="27" y="9" width="1" height="1" fill="#000000" />
<rect x="4" y="10" width="1" height="2" fill="#000000" />
<rect x="5" y="10" width="1" height="1" fill="#E68B00" />
<rect x="6" y="10" width="1" height="1" fill="#DB9325" opacity="0.996078" />
<rect x="7" y="10" width="1" height="1" fill="#F7AB36" opacity="0.996078" />
<rect x="8" y="10" width="1" height="1" fill="#FFB43F" />
<rect x="11" y="10" width="1" height="2" fill="#FFB43F" />
<rect x="12" y="10" width="1" height="2" fill="#FDB13B" />
<rect x="13" y="10" width="1" height="2" fill="#EBA232" />
<rect x="14" y="10" width="1" height="1" fill="#C88A2A" />
<rect x="15" y="10" width="4" height="1" fill="#FFB43F" />
<rect x="19" y="10" width="1" height="1" fill="#D8942A" />
<rect x="20" y="10" width="1" height="1" fill="#FAAC32" />
<rect x="21" y="10" width="1" height="2" fill="#FDB13B" />
<rect x="22" y="10" width="1" height="2" fill="#FFB43F" />
<rect x="24" y="10" width="1" height="1" fill="#FFB43F" />
<rect x="25" y="10" width="1" height="1" fill="#F7AC36" opacity="0.996078" />
<rect x="26" y="10" width="1" height="1" fill="#DB9325" opacity="0.996078" />
<rect x="27" y="10" width="1" height="1" fill="#E68B00" />
<rect x="28" y="10" width="1" height="2" fill="#000000" />
<rect x="5" y="11" width="1" height="1" fill="#B9740B" />
<rect x="6" y="11" width="1" height="1" fill="#F4A52B" />
<rect x="7" y="11" width="1" height="1" fill="#FDB13C" />
<rect x="8" y="11" width="1" height="1" fill="#FEB33E" />
<rect x="14" y="11" width="1" height="1" fill="#CF8B22" />
<rect x="15" y="11" width="4" height="1" fill="#000000" />
<rect x="19" y="11" width="1" height="1" fill="#CF8B22" />
<rect x="20" y="11" width="1" height="1" fill="#EBA232" />
<rect x="24" y="11" width="1" height="2" fill="#FEB33E" />
<rect x="25" y="11" width="1" height="1" fill="#FDB13C" />
<rect x="26" y="11" width="1" height="1" fill="#F4A52B" />
<rect x="27" y="11" width="1" height="1" fill="#B9740B" />
<rect x="4" y="12" width="1" height="1" fill="#4D2A05" opacity="0.866667" />
<rect x="5" y="12" width="1" height="1" fill="#C07615" />
<rect x="6" y="12" width="1" height="1" fill="#F6A731" />
<rect x="7" y="12" width="1" height="1" fill="#FEB23D" />
<rect x="8" y="12" width="1" height="1" fill="#FFB43F" />
<rect x="9" y="12" width="1" height="1" fill="#FEB33E" />
<rect x="10" y="12" width="1" height="1" fill="#FFB43F" />
<rect x="11" y="12" width="1" height="1" fill="#FDB13B" />
<rect x="12" y="12" width="1" height="1" fill="#EBA232" />
<rect x="13" y="12" width="1" height="1" fill="#CE881D" />
<rect x="14" y="12" width="1" height="1" fill="#000000" />
<rect x="15" y="12" width="1" height="1" fill="#C4BFB8" />
<rect x="16" y="12" width="1" height="1" fill="#AFAFAF" />
<rect x="17" y="12" width="1" height="1" fill="#ABAAAA" />
<rect x="18" y="12" width="1" height="1" fill="#C0BBB3" />
<rect x="19" y="12" width="1" height="1" fill="#000000" />
<rect x="20" y="12" width="1" height="1" fill="#CE881D" />
<rect x="21" y="12" width="1" height="1" fill="#EBA232" />
<rect x="22" y="12" width="1" height="1" fill="#FDB13B" />
<rect x="23" y="12" width="1" height="1" fill="#FDB23D" />
<rect x="25" y="12" width="1" height="1" fill="#FEB23D" />
<rect x="26" y="12" width="1" height="1" fill="#F6A731" />
<rect x="27" y="12" width="1" height="1" fill="#C07615" />
<rect x="28" y="12" width="1" height="1" fill="#4D2A05" opacity="0.866667" />
<rect x="3" y="13" width="1" height="6" fill="#000000" />
<rect x="4" y="13" width="1" height="1" fill="#B04B04" opacity="0.933333" />
<rect x="5" y="13" width="1" height="1" fill="#D9841F" />
<rect x="6" y="13" width="1" height="1" fill="#F5A630" />
<rect x="7" y="13" width="1" height="1" fill="#FDB03B" />
<rect x="8" y="13" width="1" height="1" fill="#FEB23C" />
<rect x="9" y="13" width="1" height="1" fill="#FDB23B" />
<rect x="10" y="13" width="1" height="1" fill="#FDB13B" />
<rect x="11" y="13" width="1" height="1" fill="#EBA232" />
<rect x="12" y="13" width="1" height="1" fill="#CE881D" />
<rect x="13" y="13" width="1" height="1" fill="#000000" />
<rect x="14" y="13" width="1" height="1" fill="#D7D3CB" />
<rect x="15" y="13" width="1" height="1" fill="#D1D1D0" />
<rect x="16" y="13" width="1" height="1" fill="#E4E3E2" />
<rect x="17" y="13" width="1" height="1" fill="#EEEDED" />
<rect x="18" y="13" width="1" height="1" fill="#D6D6D5" />
<rect x="19" y="13" width="1" height="1" fill="#BFB8AD" />
<rect x="20" y="13" width="1" height="1" fill="#000000" />
<rect x="21" y="13" width="1" height="1" fill="#CE881D" />
<rect x="22" y="13" width="1" height="1" fill="#EBA232" />
<rect x="23" y="13" width="1" height="1" fill="#FAAD36" />
<rect x="24" y="13" width="1" height="1" fill="#FDB23B" />
<rect x="25" y="13" width="1" height="1" fill="#FDB03B" />
<rect x="26" y="13" width="1" height="1" fill="#F5A630" />
<rect x="27" y="13" width="1" height="1" fill="#D9841F" />
<rect x="28" y="13" width="1" height="1" fill="#B04B04" opacity="0.933333" />
<rect x="29" y="13" width="1" height="6" fill="#000000" />
<rect x="4" y="14" width="1" height="2" fill="#E65000" />
<rect x="5" y="14" width="1" height="1" fill="#E87B09" />
<rect x="6" y="14" width="1" height="1" fill="#F09324" />
<rect x="7" y="14" width="1" height="1" fill="#F19C2B" />
<rect x="8" y="14" width="1" height="1" fill="#F1A42C" />
<rect x="9" y="14" width="1" height="1" fill="#FAAC32" />
<rect x="10" y="14" width="1" height="1" fill="#F8A92E" />
<rect x="11" y="14" width="1" height="2" fill="#E68B00" />
<rect x="12" y="14" width="1" height="4" fill="#000000" />
<rect x="13" y="14" width="1" height="1" fill="#C7C2BC" />
<rect x="14" y="14" width="1" height="1" fill="#D5D4D3" />
<rect x="15" y="14" width="1" height="1" fill="#EBEAE9" />
<rect x="16" y="14" width="2" height="2" fill="#FFFFFF" />
<rect x="18" y="14" width="1" height="1" fill="#F5F4F4" />
<rect x="19" y="14" width="1" height="1" fill="#D4D4D3" />
<rect x="20" y="14" width="1" height="1" fill="#ACA398" />
<rect x="21" y="14" width="1" height="1" fill="#000000" />
<rect x="22" y="14" width="1" height="2" fill="#E68B00" />
<rect x="23" y="14" width="1" height="1" fill="#F8A92E" />
<rect x="24" y="14" width="1" height="1" fill="#F1A32B" />
<rect x="25" y="14" width="1" height="1" fill="#F19C2B" />
<rect x="26" y="14" width="1" height="1" fill="#F09324" />
<rect x="27" y="14" width="1" height="1" fill="#E87B09" />
<rect x="28" y="14" width="1" height="2" fill="#E65000" />
<rect x="5" y="15" width="1" height="1" fill="#E65000" />
<rect x="6" y="15" width="1" height="1" fill="#B85107" />
<rect x="7" y="15" width="1" height="1" fill="#A66411" />
<rect x="8" y="15" width="1" height="1" fill="#BD770D" />
<rect x="9" y="15" width="2" height="1" fill="#E68B00" />
<rect x="13" y="15" width="1" height="1" fill="#AEAEAD" />
<rect x="14" y="15" width="1" height="1" fill="#EAE9E8" />
<rect x="15" y="15" width="1" height="1" fill="#F4F4F4" />
<rect x="18" y="15" width="1" height="1" fill="#FFFFFF" />
<rect x="19" y="15" width="1" height="1" fill="#F0F0EF" />
<rect x="20" y="15" width="1" height="1" fill="#B4B2B0" />
<rect x="21" y="15" width="1" height="1" fill="#524533" />
<rect x="23" y="15" width="1" height="1" fill="#E68B00" />
<rect x="24" y="15" width="1" height="1" fill="#BD770D" />
<rect x="25" y="15" width="1" height="1" fill="#A66411" />
<rect x="26" y="15" width="1" height="1" fill="#B85107" />
<rect x="27" y="15" width="1" height="1" fill="#E65000" />
<rect x="4" y="16" width="8" height="1" fill="#000000" />
<rect x="13" y="16" width="1" height="1" fill="#ABABAB" />
<rect x="14" y="16" width="1" height="1" fill="#F2F2F1" />
<rect x="15" y="16" width="2" height="1" fill="#FCFCFC" />
<rect x="17" y="16" width="1" height="1" fill="#FFFFFF" />
<rect x="18" y="16" width="1" height="1" fill="#FAFAFA" />
<rect x="19" y="16" width="1" height="1" fill="#EBEBEB" />
<rect x="20" y="16" width="1" height="1" fill="#C6C6C6" />
<rect x="21" y="16" width="1" height="1" fill="#49433A" />
<rect x="22" y="16" width="7" height="1" fill="#000000" />
<rect x="4" y="17" width="3" height="1" fill="#CCCCCC" />
<rect x="7" y="17" width="1" height="1" fill="#C8C8C8" />
<rect x="8" y="17" width="1" height="1" fill="#B0B0B0" />
<rect x="9" y="17" width="1" height="1" fill="#ADADAD" />
<rect x="10" y="17" width="1" height="1" fill="#ABABAB" />
<rect x="11" y="17" width="1" height="1" fill="#949494" />
<rect x="13" y="17" width="1" height="1" fill="#C3C3C3" />
<rect x="14" y="17" width="1" height="1" fill="#E0E0E0" />
<rect x="15" y="17" width="1" height="1" fill="#FAFAFA" />
<rect x="16" y="17" width="1" height="1" fill="#FBFBFB" />
<rect x="17" y="17" width="1" height="1" fill="#F6F6F6" />
<rect x="18" y="17" width="1" height="1" fill="#EEEEEE" />
<rect x="19" y="17" width="1" height="1" fill="#E2E2E2" />
<rect x="20" y="17" width="1" height="1" fill="#9D9D9D" />
<rect x="21" y="17" width="1" height="1" fill="#000000" />
<rect x="22" y="17" width="1" height="1" fill="#BBBBBB" />
<rect x="23" y="17" width="1" height="1" fill="#CBCBCB" />
<rect x="24" y="17" width="1" height="1" fill="#C8C8C8" />
<rect x="25" y="17" width="1" height="1" fill="#ABABAB" />
<rect x="26" y="17" width="1" height="1" fill="#989898" opacity="0.996078" />
<rect x="27" y="17" width="1" height="1" fill="#949494" opacity="0.988235" />
<rect x="28" y="17" width="1" height="1" fill="#B1B1B1" opacity="0.992157" />
<rect x="4" y="18" width="1" height="1" fill="#FFFFFF" opacity="0.933333" />
<rect x="5" y="18" width="2" height="3" fill="#FFFFFF" />
<rect x="7" y="18" width="1" height="1" fill="#FBFBFB" />
<rect x="8" y="18" width="1" height="1" fill="#F8F8F8" />
<rect x="9" y="18" width="1" height="1" fill="#F5F5F5" />
<rect x="10" y="18" width="1" height="1" fill="#F2F2F2" />
<rect x="11" y="18" width="1" height="1" fill="#DADADA" />
<rect x="12" y="18" width="1" height="1" fill="#CACACA" />
<rect x="13" y="18" width="1" height="1" fill="#000000" />
<rect x="14" y="18" width="1" height="1" fill="#D2D2D2" />
<rect x="15" y="18" width="1" height="1" fill="#D3D3D3" />
<rect x="16" y="18" width="1" height="1" fill="#E4E4E4" />
<rect x="17" y="18" width="1" height="1" fill="#EDEDED" />
<rect x="18" y="18" width="1" height="1" fill="#DBDBDB" />
<rect x="19" y="18" width="1" height="1" fill="#A7A7A7" />
<rect x="20" y="18" width="1" height="1" fill="#000000" />
<rect x="21" y="18" width="1" height="1" fill="#DDDDDD" />
<rect x="22" y="18" width="1" height="1" fill="#EEEEEE" />
<rect x="23" y="18" width="1" height="1" fill="#FEFEFE" />
<rect x="24" y="18" width="1" height="1" fill="#F9F9F9" />
<rect x="25" y="18" width="1" height="1" fill="#EFEFEF" />
<rect x="26" y="18" width="1" height="1" fill="#DCDCDC" opacity="0.996078" />
<rect x="27" y="18" width="1" height="1" fill="#D0D0D0" opacity="0.968627" />
<rect x="28" y="18" width="1" height="1" fill="#B8B8B8" opacity="0.866667" />
<rect x="4" y="19" width="1" height="3" fill="#000000" />
<rect x="7" y="19" width="3" height="2" fill="#FFFFFF" />
<rect x="10" y="19" width="1" height="1" fill="#FEFEFE" />
<rect x="11" y="19" width="1" height="1" fill="#FAFAFA" />
<rect x="12" y="19" width="1" height="1" fill="#E6E6E6" />
<rect x="13" y="19" width="1" height="1" fill="#DDDDDD" />
<rect x="14" y="19" width="1" height="1" fill="#000000" />
<rect x="15" y="19" width="1" height="1" fill="#9A9A9A" />
<rect x="16" y="19" width="1" height="1" fill="#979797" />
<rect x="17" y="19" width="2" height="1" fill="#ABABAB" />
<rect x="19" y="19" width="1" height="1" fill="#000000" />
<rect x="20" y="19" width="1" height="1" fill="#DCDCDC" />
<rect x="21" y="19" width="1" height="1" fill="#ECECEC" />
<rect x="22" y="19" width="1" height="1" fill="#FEFEFE" />
<rect x="23" y="19" width="1" height="1" fill="#FDFDFD" opacity="0.996078" />
<rect x="24" y="19" width="1" height="1" fill="#F9F9F9" opacity="0.996078" />
<rect x="25" y="19" width="1" height="1" fill="#EDEDED" opacity="0.996078" />
<rect x="26" y="19" width="1" height="1" fill="#DADADA" opacity="0.988235" />
<rect x="27" y="19" width="1" height="1" fill="#BCBCBC" opacity="0.929412" />
<rect x="28" y="19" width="1" height="3" fill="#000000" />
<rect x="10" y="20" width="1" height="1" fill="#FFFFFF" />
<rect x="11" y="20" width="1" height="1" fill="#FEFEFE" />
<rect x="12" y="20" width="1" height="2" fill="#FFFFFF" />
<rect x="13" y="20" width="1" height="1" fill="#EEEEEE" />
<rect x="14" y="20" width="1" height="1" fill="#DDDDDD" />
<rect x="15" y="20" width="4" height="1" fill="#000000" />
<rect x="19" y="20" width="1" height="1" fill="#D8D8D8" />
<rect x="20" y="20" width="1" height="1" fill="#E4E4E4" />
<rect x="21" y="20" width="1" height="1" fill="#FDFDFD" />
<rect x="22" y="20" width="1" height="1" fill="#FDFDFD" opacity="0.996078" />
<rect x="23" y="20" width="1" height="1" fill="#F9F9F9" opacity="0.996078" />
<rect x="24" y="20" width="1" height="1" fill="#ECECEC" opacity="0.996078" />
<rect x="25" y="20" width="1" height="1" fill="#DADADA" opacity="0.992157" />
<rect x="26" y="20" width="1" height="1" fill="#BFBFBF" opacity="0.960784" />
<rect x="27" y="20" width="1" height="1" fill="#ADADAD" opacity="0.854902" />
<rect x="5" y="21" width="1" height="1" fill="#FFFFFF" opacity="0.933333" />
<rect x="6" y="21" width="3" height="2" fill="#FFFFFF" />
<rect x="9" y="21" width="2" height="1" fill="#FEFEFE" />
<rect x="11" y="21" width="1" height="1" fill="#FFFFFF" />
<rect x="13" y="21" width="1" height="1" fill="#FFFFFF" />
<rect x="14" y="21" width="1" height="1" fill="#EEEEEE" />
<rect x="15" y="21" width="1" height="1" fill="#DDDDDD" />
<rect x="16" y="21" width="1" height="1" fill="#CCCCCC" />
<rect x="17" y="21" width="1" height="1" fill="#CACACA" />
<rect x="18" y="21" width="1" height="1" fill="#CCCCCC" />
<rect x="19" y="21" width="1" height="1" fill="#E2E2E2" />
<rect x="20" y="21" width="1" height="1" fill="#FBFBFB" />
<rect x="21" y="21" width="1" height="1" fill="#FBFBFB" opacity="0.996078" />
<rect x="22" y="21" width="1" height="1" fill="#F9F9F9" opacity="0.996078" />
<rect x="23" y="21" width="1" height="1" fill="#EBEBEB" opacity="0.996078" />
<rect x="24" y="21" width="1" height="1" fill="#D8D8D8" opacity="0.992157" />
<rect x="25" y="21" width="1" height="1" fill="#BFBFBF" opacity="0.968627" />
<rect x="26" y="21" width="1" height="1" fill="#ACACAC" opacity="0.901961" />
<rect x="27" y="21" width="1" height="1" fill="#A2A2A2" opacity="0.713725" />
<rect x="5" y="22" width="1" height="1" fill="#000000" />
<rect x="9" y="22" width="1" height="1" fill="#FFFFFF" />
<rect x="10" y="22" width="2" height="1" fill="#FEFEFE" />
<rect x="12" y="22" width="3" height="1" fill="#FEFEFE" opacity="0.996078" />
<rect x="15" y="22" width="2" height="1" fill="#FEFEFE" />
<rect x="17" y="22" width="1" height="1" fill="#FCFCFC" />
<rect x="18" y="22" width="1" height="1" fill="#FAFAFA" />
<rect x="19" y="22" width="1" height="1" fill="#F8F8F8" />
<rect x="20" y="22" width="1" height="1" fill="#FAFAFA" opacity="0.996078" />
<rect x="21" y="22" width="1" height="1" fill="#F6F6F6" opacity="0.996078" />
<rect x="22" y="22" width="1" height="1" fill="#EAEAEA" opacity="0.996078" />
<rect x="23" y="22" width="1" height="1" fill="#D8D8D8" opacity="0.992157" />
<rect x="24" y="22" width="1" height="1" fill="#BFBFBF" opacity="0.968627" />
<rect x="25" y="22" width="1" height="1" fill="#ACACAC" opacity="0.909804" />
<rect x="26" y="22" width="1" height="1" fill="#A1A1A1" opacity="0.749020" />
<rect x="27" y="22" width="1" height="1" fill="#000000" />
<rect x="6" y="23" width="1" height="1" fill="#000000" />
<rect x="7" y="23" width="1" height="1" fill="#FFFFFF" />
<rect x="8" y="23" width="1" height="1" fill="#FEFEFE" opacity="0.972549" />
<rect x="9" y="23" width="1" height="1" fill="#FEFEFE" opacity="0.988235" />
<rect x="10" y="23" width="3" height="1" fill="#FDFDFD" opacity="0.996078" />
<rect x="13" y="23" width="3" height="1" fill="#FCFCFC" opacity="0.996078" />
<rect x="16" y="23" width="1" height="1" fill="#FBFBFB" opacity="0.996078" />
<rect x="17" y="23" width="2" height="1" fill="#FAFAFA" opacity="0.996078" />
<rect x="19" y="23" width="1" height="1" fill="#F7F7F7" opacity="0.996078" />
<rect x="20" y="23" width="1" height="1" fill="#F3F3F3" opacity="0.996078" />
<rect x="21" y="23" width="1" height="1" fill="#E8E8E8" opacity="0.996078" />
<rect x="22" y="23" width="1" height="1" fill="#D6D6D6" opacity="0.992157" />
<rect x="23" y="23" width="1" height="1" fill="#BEBEBE" opacity="0.968627" />
<rect x="24" y="23" width="1" height="1" fill="#ACACAC" opacity="0.913725" />
<rect x="25" y="23" width="1" height="1" fill="#A1A1A1" opacity="0.752941" />
<rect x="26" y="23" width="1" height="1" fill="#000000" />
<rect x="7" y="24" width="1" height="1" fill="#000000" />
<rect x="8" y="24" width="1" height="1" fill="#FDFDFD" opacity="0.878431" />
<rect x="9" y="24" width="1" height="1" fill="#F8F8F8" opacity="0.937255" />
<rect x="10" y="24" width="1" height="1" fill="#F5F5F5" opacity="0.964706" />
<rect x="11" y="24" width="1" height="1" fill="#F5F5F5" opacity="0.984314" />
<rect x="12" y="24" width="1" height="1" fill="#F7F7F7" opacity="0.988235" />
<rect x="13" y="24" width="1" height="1" fill="#F8F8F8" opacity="0.992157" />
<rect x="14" y="24" width="1" height="1" fill="#F6F6F6" opacity="0.992157" />
<rect x="15" y="24" width="1" height="1" fill="#F4F4F4" opacity="0.996078" />
<rect x="16" y="24" width="1" height="1" fill="#F1F1F1" opacity="0.996078" />
<rect x="17" y="24" width="1" height="1" fill="#EFEFEF" opacity="0.996078" />
<rect x="18" y="24" width="1" height="1" fill="#EDEDED" opacity="0.996078" />
<rect x="19" y="24" width="1" height="1" fill="#E9E9E9" opacity="0.996078" />
<rect x="20" y="24" width="1" height="1" fill="#DFDFDF" opacity="0.992157" />
<rect x="21" y="24" width="1" height="1" fill="#D0D0D0" opacity="0.992157" />
<rect x="22" y="24" width="1" height="1" fill="#BCBCBC" opacity="0.972549" />
<rect x="23" y="24" width="1" height="1" fill="#ACACAC" opacity="0.921569" />
<rect x="24" y="24" width="1" height="1" fill="#A1A1A1" opacity="0.760784" />
<rect x="25" y="24" width="1" height="1" fill="#000000" />
<rect x="8" y="25" width="1" height="1" fill="#000000" />
<rect x="9" y="25" width="1" height="1" fill="#E9E9E9" opacity="0.807843" />
<rect x="10" y="25" width="1" height="1" fill="#E2E2E2" opacity="0.890196" />
<rect x="11" y="25" width="1" height="1" fill="#E3E3E3" opacity="0.941176" />
<rect x="12" y="25" width="1" height="1" fill="#E8E8E8" opacity="0.964706" />
<rect x="13" y="25" width="1" height="1" fill="#EAEAEA" opacity="0.976471" />
<rect x="14" y="25" width="1" height="1" fill="#E7E7E7" opacity="0.984314" />
<rect x="15" y="25" width="1" height="1" fill="#E1E1E1" opacity="0.988235" />
<rect x="16" y="25" width="1" height="1" fill="#DCDCDC" opacity="0.992157" />
<rect x="17" y="25" width="1" height="1" fill="#D9D9D9" opacity="0.992157" />
<rect x="18" y="25" width="1" height="1" fill="#D6D6D6" opacity="0.988235" />
<rect x="19" y="25" width="1" height="1" fill="#CFCFCF" opacity="0.988235" />
<rect x="20" y="25" width="1" height="1" fill="#C2C2C2" opacity="0.988235" />
<rect x="21" y="25" width="1" height="1" fill="#B4B4B4" opacity="0.972549" />
<rect x="22" y="25" width="1" height="1" fill="#A8A8A8" opacity="0.929412" />
<rect x="23" y="25" width="1" height="1" fill="#9E9E9E" opacity="0.827451" />
<rect x="24" y="25" width="1" height="1" fill="#000000" />
<rect x="9" y="26" width="1" height="1" fill="#000000" />
<rect x="10" y="26" width="1" height="1" fill="#C7C7C7" opacity="0.741176" />
<rect x="11" y="26" width="1" height="1" fill="#C8C8C8" opacity="0.862745" />
<rect x="12" y="26" width="1" height="1" fill="#D3D3D3" opacity="0.901961" />
<rect x="13" y="26" width="1" height="1" fill="#D6D6D6" opacity="0.937255" />
<rect x="14" y="26" width="1" height="1" fill="#D1D1D1" opacity="0.964706" />
<rect x="15" y="26" width="1" height="1" fill="#C5C5C5" opacity="0.976471" />
<rect x="16" y="26" width="1" height="1" fill="#BEBEBE" opacity="0.980392" />
<rect x="17" y="26" width="1" height="1" fill="#BBBBBB" opacity="0.984314" />
<rect x="18" y="26" width="1" height="1" fill="#B9B9B9" opacity="0.980392" />
<rect x="19" y="26" width="1" height="1" fill="#B2B2B2" opacity="0.964706" />
<rect x="20" y="26" width="1" height="1" fill="#A8A8A8" opacity="0.952941" />
<rect x="21" y="26" width="1" height="1" fill="#9E9E9E" opacity="0.968627" />
<rect x="22" y="26" width="1" height="1" fill="#9B9B9B" opacity="0.862745" />
<rect x="23" y="26" width="1" height="1" fill="#000000" />
<rect x="10" y="27" width="3" height="1" fill="#000000" />
<rect x="13" y="27" width="1" height="1" fill="#BCBCBC" opacity="0.756863" />
<rect x="14" y="27" width="1" height="1" fill="#B4B4B4" opacity="0.854902" />
<rect x="15" y="27" width="1" height="1" fill="#ADADAD" opacity="0.874510" />
<rect x="16" y="27" width="1" height="1" fill="#A7A7A7" opacity="0.886275" />
<rect x="17" y="27" width="1" height="1" fill="#A4A4A4" opacity="0.925490" />
<rect x="18" y="27" width="1" height="1" fill="#A2A2A2" opacity="0.949020" />
<rect x="19" y="27" width="1" height="1" fill="#A0A0A0" opacity="0.866667" />
<rect x="20" y="27" width="3" height="1" fill="#000000" />
<rect x="13" y="28" width="7" height="1" fill="#000000" />
</svg>